<svg xmlns="http://www.w3.org/2000/svg" width="24" height="24" viewBox="0 0 24 24"><rect width="24" height="24" fill="none"/><path d="M210.368,13.277a10,10,0,1,1-10-10,10,10,0,0,1,10,10" transform="translate(-188.368 -1.277)" fill="#1c8fed"/><path d="M204.368,10.277a7,7,0,1,1-7-7,7,7,0,0,1,7,7" transform="translate(-185.368 1.723)" fill="#fff"/><path d="M199.368,7.777a4.5,4.5,0,1,1-4.5-4.5,4.5,4.5,0,0,1,4.5,4.5" transform="translate(-182.868 4.223)" fill="#1c8fed"/><path d="M194.368,5.277a2,2,0,1,1-2-2,2,2,0,0,1,2,2" transform="translate(-180.368 6.723)" fill="#ffc917"/><path d="M4.262.062A.537.537,0,0,0,3.7.1L2.276,1.11.851.1A.538.538,0,0,0,0,.537L0,2.352a.537.537,0,0,0,.206.424l1.738,1.36a.537.537,0,0,0,.663,0l1.738-1.36a.538.538,0,0,0,.206-.423V.539a.538.538,0,0,0-.29-.477" transform="translate(18.781 2) rotate(45)" fill="#3a3a3a"/><path d="M3156,257.6a.75.75,0,0,1-.75-.75V248a.75.75,0,1,1,1.5,0v8.853A.75.75,0,0,1,3156,257.6Z" transform="translate(-2038.007 -2401.252) rotate(45)" fill="#3a3a3a"/></svg>