<svg xmlns="http://www.w3.org/2000/svg" width="24" height="24" viewBox="0 0 24 24"><rect width="24" height="24" fill="none"/><rect width="4" height="3" rx="1" transform="translate(4 19)" fill="#3a3a3a"/><rect width="4" height="3" rx="1" transform="translate(16 19)" fill="#3a3a3a"/><path d="M1-1.5H7A2.5,2.5,0,0,1,9.5,1V5A2.5,2.5,0,0,1,7,7.5H1A2.5,2.5,0,0,1-1.5,5V1A2.5,2.5,0,0,1,1-1.5Zm5.5,3h-5v3h5Z" transform="translate(8 4)" fill="#3a3a3a"/><rect width="20" height="13" rx="3" transform="translate(2 7)" fill="#1c8fed"/><rect width="8" height="3" rx="1" transform="translate(8 10)" fill="#ffc917"/></svg>