<svg id="icon_fill_light_hp" xmlns="http://www.w3.org/2000/svg" width="24" height="24" viewBox="0 0 24 24">
  <rect id="frame" width="24" height="24" fill="none"/>
  <path id="패스_17978" data-name="패스 17978" d="M10,20c-.1,0-.2,0-.3,0l2.044-5.617h2.812a1.379,1.379,0,0,0,1.2-.843l2.217-6.09a1.265,1.265,0,0,0-1.269-1.813h-3.9l-3.274,9h0l-1.856,5.1A10,10,0,0,1,0,10,9.884,9.884,0,0,1,7.3.369L5.385,5.632h0L2.2,14.378H4.32L7.027,6.946H8.62L5.913,14.378H8.031l2.523-6.933A1.265,1.265,0,0,0,9.286,5.632H7.5L9.55.011C9.7,0,9.849,0,10,0a10,10,0,1,1,0,20M16.05,6.942H14.458l-2.23,6.119h1.593l2.23-6.119Z" transform="translate(2 2)" fill="#3a3a3a"/>
</svg>
