<svg xmlns="http://www.w3.org/2000/svg" width="24" height="24" viewBox="0 0 24 24"><g transform="translate(-17 14.146)"><rect width="24" height="24" transform="translate(17 -14.146)" fill="none"/><path d="M592.443,221.247h-7.7l-1.525-1.577v-3.78c0-1.092-.885-1.549-1.985-1.6-3.451.1-7.452,3.581-7.452,7.049v3.111a1.736,1.736,0,0,0,1.874,1.84h16.253a1.736,1.736,0,0,0,1.874-1.84V222.56a1.324,1.324,0,0,0-1.336-1.313" transform="translate(-554.779 -221.439)" fill="#1c8fed"/><path d="M588.335,224.876s-3.26-.016-5,4l5-.01Z" transform="translate(-562.335 -230.022)" fill="#fff"/><path d="M640.273,267.087a2,2,0,1,0,2-2,2,2,0,0,0-2,2" transform="translate(-608.273 -262.233)" fill="#3a3a3a"/><path d="M640.273,267.087a2,2,0,1,0,2-2,2,2,0,0,0-2,2" transform="translate(-618.273 -262.233)" fill="#3a3a3a"/><rect width="10" height="8" rx="1" transform="translate(28 -8.146)" fill="#aad5f8"/><path d="M2.971,11V3h-3.3a.624.624,0,0,1-.6-.974L-.2.514A.844.844,0,0,1,1.131.2l2.76,2.137c.029.022.056.045.08.067.025-.022.051-.044.08-.067L6.812.2A.844.844,0,0,1,8.138.514l.734,1.512a.624.624,0,0,1-.6.974h-3.3v8Z" transform="translate(29.028 -11.146)" fill="#ffc917"/></g></svg>