<svg xmlns="http://www.w3.org/2000/svg" width="48" height="48" viewBox="0 0 48 48"><g transform="translate(0.458 0.141)"><rect width="48" height="48" transform="translate(-0.458 -0.141)" fill="none"/><circle cx="18" cy="18" r="18" transform="translate(5.542 5.859)" fill="none" stroke="#D8D8D8" stroke-linecap="round" stroke-linejoin="round" stroke-width="2"/><path d="M601.266,794.07a1.692,1.692,0,0,1,.537-1.282,2.362,2.362,0,0,1,2.927,0,1.692,1.692,0,0,1,.536,1.282,1.659,1.659,0,0,1-.521,1.246,2.431,2.431,0,0,1-2.957,0A1.657,1.657,0,0,1,601.266,794.07Zm3.464-4.266H601.7l-.333-13.987h3.711Z" transform="translate(-579.723 -761.958)" fill="#D8D8D8"/></g></svg>