<svg xmlns="http://www.w3.org/2000/svg" width="24" height="24" viewBox="0 0 24 24"><rect width="24" height="24" fill="none"/><path d="M3,0H17a3,3,0,0,1,3,3V14a0,0,0,0,1,0,0H0a0,0,0,0,1,0,0V3A3,3,0,0,1,3,0Z" transform="translate(2 2)" fill="#3a3a3a"/><path d="M0,0H20a0,0,0,0,1,0,0V0a2,2,0,0,1-2,2H2A2,2,0,0,1,0,0V0A0,0,0,0,1,0,0Z" transform="translate(2 16)" fill="#1c8fed"/><rect width="16" height="10" rx="1" transform="translate(4 4)" fill="#fff"/><rect width="6" height="2.5" transform="translate(9 18)" fill="#aad5f8"/><rect width="10" height="1.5" rx="0.75" transform="translate(7 20.5)" fill="#1c8fed"/><rect width="2" height="6" rx="1" transform="translate(15 6)" fill="#1c8fed"/><rect width="2" height="4" rx="1" transform="translate(11 8)" fill="#ffc917"/><rect width="2" height="3" rx="1" transform="translate(7 9)" fill="#ffc917"/></svg>