<svg xmlns="http://www.w3.org/2000/svg" width="24" height="24" viewBox="0 0 24 24"><rect width="24" height="24" fill="none"/><rect width="20" height="16" rx="3" transform="translate(2 4)" fill="#1c8fed"/><rect width="16" height="9" rx="1" transform="translate(4 6)" fill="#fff"/><rect width="16" height="1" rx="0.5" transform="translate(4 17)" fill="#aad5f8"/><path d="M14400.314-672.073a.586.586,0,0,1-.312-.518v-4.821a.585.585,0,0,1,.313-.515.6.6,0,0,1,.607.019l3.8,2.413a.578.578,0,0,1,.275.493.583.583,0,0,1-.275.5l-3.8,2.41a.607.607,0,0,1-.322.094A.6.6,0,0,1,14400.314-672.073Z" transform="translate(-14390.002 685.501)" fill="#3a3a3a"/><rect width="10" height="1" rx="0.5" transform="translate(4 17)" fill="#ffc917"/></svg>