<svg xmlns="http://www.w3.org/2000/svg" width="24" height="24" viewBox="0 0 24 24"><rect width="24" height="24" fill="none"/><rect width="20" height="16" rx="3" transform="translate(2 4)" fill="#1c8fed"/><path d="M0,0H6A0,0,0,0,1,6,0V3A1,1,0,0,1,5,4H1A1,1,0,0,1,0,3V0A0,0,0,0,1,0,0Z" transform="translate(9 4)" fill="#ffc917"/><path d="M2.371-3.818H.8A.535.535,0,0,0,.3-3.244V.6a.489.489,0,0,0,.5.514.484.484,0,0,0,.546-.5c0-.475-.005-.939-.005-1.414H2.34l.5,1.552a.526.526,0,0,0,.51.376.5.5,0,0,0,.166-.028A.572.572,0,0,0,3.9.557.677.677,0,0,0,3.874.369L3.359-1.222A1.606,1.606,0,0,0,3.8-2.31,1.43,1.43,0,0,0,2.371-3.818ZM2.314-1.885H1.342v-.851h.972a.409.409,0,0,1,.411.425A.412.412,0,0,1,2.314-1.885ZM4.8,1.06H7.3A.481.481,0,0,0,7.738.552.486.486,0,0,0,7.3.038H5.444L5.45-.979h1a.481.481,0,0,0,.437-.508A.486.486,0,0,0,6.448-2h-1l.005-.8H7.3a.481.481,0,0,0,.437-.508A.486.486,0,0,0,7.3-3.824H4.81a.482.482,0,0,0-.437.514L4.363.53V.557A.475.475,0,0,0,4.8,1.06ZM8.211-3.376V.6a.5.5,0,0,0,.515.508A.511.511,0,0,0,9.256.6V-1.6l1.8,2.5a.49.49,0,0,0,.426.215A.511.511,0,0,0,12.017.6V-3.376a.507.507,0,0,0-.53-.5.5.5,0,0,0-.515.5v2.2l-1.8-2.492a.5.5,0,0,0-.442-.215A.5.5,0,0,0,8.211-3.376Zm4.758.68h.853V.585a.557.557,0,0,0,1.113,0V-2.7h.816a.529.529,0,0,0,.484-.558.534.534,0,0,0-.484-.564H12.969a.53.53,0,0,0-.478.564A.525.525,0,0,0,12.969-2.7Z" transform="translate(3.998 14.879)" fill="#fff"/></svg>