<svg xmlns="http://www.w3.org/2000/svg" width="24" height="24" viewBox="0 0 24 24"><rect width="24" height="24" fill="none"/><rect width="20" height="16" rx="3" transform="translate(2 4)" fill="#1c8fed"/><path d="M5.5-11.592v-1.355A2.083,2.083,0,0,0,3.225-15.02,2.059,2.059,0,0,0,.96-12.948v1.355A2.059,2.059,0,0,0,3.225-9.52,2.083,2.083,0,0,0,5.5-11.592ZM4.252-12.9v1.247a.985.985,0,0,1-1.027.964A.968.968,0,0,1,2.2-11.647v-1.259a.968.968,0,0,1,1.021-.958A.985.985,0,0,1,4.252-12.9ZM7.161-9.827A3.976,3.976,0,0,0,8.64-9.55h.21c1.516,0,2.11-.849,2.11-1.663,0-1.03-.792-1.675-2.159-1.675-.532,0-.724-.2-.724-.458,0-.229.217-.446.718-.446a2.3,2.3,0,0,1,1.083.247.625.625,0,0,0,.272.066.593.593,0,0,0,.526-.349.67.67,0,0,0,.062-.271.616.616,0,0,0-.328-.542A3.492,3.492,0,0,0,8.8-15c-1.4,0-2.054.759-2.054,1.645,0,.976.8,1.669,2.054,1.669.6,0,.817.157.817.476,0,.217-.167.452-.817.452a2.669,2.669,0,0,1-1.182-.235.8.8,0,0,0-.353-.084.569.569,0,0,0-.563.386.631.631,0,0,0-.037.211A.771.771,0,0,0,7.161-9.827Z" transform="translate(6.04 21.52)" fill="#fff"/><path d="M3156,260.75a.75.75,0,0,1-.75-.75V248a.75.75,0,0,1,1.5,0v12A.75.75,0,0,1,3156,260.75Z" transform="translate(266 -3141.5) rotate(90)" fill="#aad5f8"/><path d="M3156,260.75a.75.75,0,0,1-.75-.75V248a.75.75,0,0,1,1.5,0v12A.75.75,0,0,1,3156,260.75Z" transform="translate(266 -3139) rotate(90)" fill="#aad5f8"/><path d="M1072.265,88.935,1071.5,87.1l-.766,1.833c-.032.077-.1.086-.148.02l-.484-.659a.3.3,0,0,0-.231-.113l-.776.041c-.079,0-.116-.056-.084-.133l1.253-3a.138.138,0,0,1,.188-.076l1.047.513,1.047-.513a.139.139,0,0,1,.189.076l1.252,3c.032.077,0,.138-.083.133l-.777-.041a.3.3,0,0,0-.231.113l-.484.659a.093.093,0,0,1-.072.045C1072.311,89,1072.283,88.978,1072.265,88.935Z" transform="translate(-1053 -67)" fill="#1a1a1a"/><circle cx="2" cy="2" r="2" transform="translate(16.5 15.466)" fill="#ffc917"/></svg>