<svg xmlns="http://www.w3.org/2000/svg" width="24" height="24" viewBox="0 0 24 24"><g transform="translate(2 2)"><rect width="24" height="24" transform="translate(-2 -2)" fill="none"/><path d="M20,28.607a7.711,7.711,0,0,1-7.906,7.5H7.906A7.711,7.711,0,0,1,0,28.607a7.711,7.711,0,0,1,7.906-7.5h4.188A7.711,7.711,0,0,1,20,28.607" transform="translate(0 -16.107)" fill="#1c8fed"/><path d="M35.59,1.016C35.889.457,35.554,0,34.845,0H26.554c-.709,0-1.044.457-.745,1.016l1.054,1.968A2.257,2.257,0,0,0,28.7,4H32.7a2.256,2.256,0,0,0,1.833-1.016Z" transform="translate(-20.7)" fill="#1c8fed"/><path d="M34.283,13.651a1.274,1.274,0,0,1-1.3,1.25H25.58a1.251,1.251,0,1,1,0-2.5h7.407a1.274,1.274,0,0,1,1.3,1.25" transform="translate(-19.283 -9.401)" fill="#ffc917"/><path d="M26.543,43.962a.643.643,0,0,0-.452.788l.276,1.019h-.59a.642.642,0,0,0,0,1.284h.935l.931,2.911c.17.3.319.466.6.474h.018c.275,0,.448-.172.607-.442l1.146-2.944h.219l1.059,2.931c.213.371.334.455.613.455h.011c.283-.006.442-.15.609-.475l.933-2.911H34.5a.642.642,0,0,0,0-1.284H33.8l.276-1.019a.64.64,0,1,0-1.236-.336l-.366,1.355H31.185l-.421-1.374a.64.64,0,0,0-1.221-.014l-.454,1.388h-1.4l-.364-1.355a.637.637,0,0,0-.784-.452m5.591,3.09-.264.974-.295-.974Zm-3.466,0-.345,1.059-.283-1.059Z" transform="translate(-20.135 -34.938)" fill="#fff"/></g></svg>