<svg xmlns="http://www.w3.org/2000/svg" width="24" height="24" viewBox="0 0 24 24"><rect width="24" height="24" fill="none"/><path d="M38.554,54.288a.242.242,0,0,0,.444.055L40.45,52.53a.944.944,0,0,1,.694-.312l2.328.113a.24.24,0,0,0,.251-.367l-3.758-8.248A.431.431,0,0,0,39.4,43.5l-4.389,1.973a.426.426,0,0,0-.213.563Z" transform="translate(-23.758 -32.465)" fill="#1c8fed"/><path d="M39.962,54.288a.242.242,0,0,1-.444.055L38.067,52.53a.944.944,0,0,0-.694-.312l-2.328.113a.24.24,0,0,1-.251-.367l3.758-8.248a.431.431,0,0,1,.567-.212l4.389,1.973a.426.426,0,0,1,.213.563Z" transform="translate(-30.758 -32.465)" fill="#1c8fed"/><path d="M9.605.421a1,1,0,0,1,1.32.43l.657,1.234a1,1,0,0,0,.679.509l1.32.275a1,1,0,0,1,.789,1.091l-.169,1.5a1,1,0,0,0,.243.773l.975,1.108a1,1,0,0,1,0,1.321l-.975,1.108a1,1,0,0,0-.243.773l.169,1.5a1,1,0,0,1-.789,1.091l-1.32.275a1,1,0,0,0-.679.509l-.657,1.234a1,1,0,0,1-1.32.43l-1.169-.567a1,1,0,0,0-.873,0l-1.168.567a1,1,0,0,1-1.32-.43l-.657-1.234a1,1,0,0,0-.679-.509L2.42,13.13a1,1,0,0,1-.789-1.091l.169-1.5a1,1,0,0,0-.243-.773L.581,8.661a1,1,0,0,1,0-1.321l.975-1.108A1,1,0,0,0,1.8,5.458l-.169-1.5A1,1,0,0,1,2.42,2.87l1.32-.275a1,1,0,0,0,.679-.509L5.075.851a1,1,0,0,1,1.32-.43L7.563.988a1,1,0,0,0,.873,0Z" transform="translate(20 2) rotate(90)" fill="#ffc917"/></svg>