<svg xmlns="http://www.w3.org/2000/svg" width="24" height="24" viewBox="0 0 24 24"><rect width="24" height="24" fill="none"/><rect width="16" height="20" rx="3" transform="translate(4 2)" fill="#1c8fed"/><rect width="12" height="4" rx="1" transform="translate(6 4)" fill="#3a3a3a"/><g transform="translate(18.5 -0.5)"><path d="M47.331,68.488h-3.4a.571.571,0,0,0-.548.589V69.4a.571.571,0,0,0,.548.589h3.4a.572.572,0,0,0,.549-.589v-.321a.573.573,0,0,0-.549-.589" transform="translate(-48.88 -52.488)" fill="#ffc917"/><path d="M47.331,68.488h-3.4a.571.571,0,0,0-.548.589V69.4a.571.571,0,0,0,.548.589h3.4a.572.572,0,0,0,.549-.589v-.321a.573.573,0,0,0-.549-.589" transform="translate(-48.88 -49.988)" fill="#ffc917"/></g><path d="M2.09,4.5a.572.572,0,0,1-.59-.549V3H.548A.571.571,0,0,1,0,2.41V2.089A.571.571,0,0,1,.548,1.5H1.5V.548A.571.571,0,0,1,2.09,0h.32A.571.571,0,0,1,3,.548V1.5h.951a.572.572,0,0,1,.549.589V2.41A.572.572,0,0,1,3.951,3H3v.951A.572.572,0,0,1,2.41,4.5Z" transform="translate(6.432 9.5)" fill="#fff"/><path d="M2.09,4.5a.572.572,0,0,1-.59-.549V3H.548A.571.571,0,0,1,0,2.41V2.089A.571.571,0,0,1,.548,1.5H1.5V.548A.571.571,0,0,1,2.09,0h.32A.571.571,0,0,1,3,.548V1.5h.951a.572.572,0,0,1,.549.589V2.41A.572.572,0,0,1,3.951,3H3v.951A.572.572,0,0,1,2.41,4.5Z" transform="translate(8.682 14.318) rotate(45)" fill="#fff"/><path d="M47.331,68.488h-3.4a.571.571,0,0,0-.548.589V69.4a.571.571,0,0,0,.548.589h3.4a.572.572,0,0,0,.549-.589v-.321a.573.573,0,0,0-.549-.589" transform="translate(-30.38 -57.488)" fill="#fff"/></svg>