<svg xmlns="http://www.w3.org/2000/svg" width="24" height="24" viewBox="0 0 24 24"><rect width="24" height="24" fill="none"/><path d="M0,0H14a0,0,0,0,1,0,0V13a3,3,0,0,1-3,3H3a3,3,0,0,1-3-3V0A0,0,0,0,1,0,0Z" transform="translate(5 6)" fill="#1c8fed"/><rect width="10" height="2" rx="1" transform="translate(7 8)" fill="#aad5f8"/><circle cx="1.5" cy="1.5" r="1.5" transform="translate(10.5 17)" fill="#ffc917"/><path d="M3,0h8a3,3,0,0,1,3,3V4a0,0,0,0,1,0,0H0A0,0,0,0,1,0,4V3A3,3,0,0,1,3,0Z" transform="translate(5 2)" fill="#3a3a3a"/></svg>