<svg xmlns="http://www.w3.org/2000/svg" width="24" height="24" viewBox="0 0 24 24"><rect width="24" height="24" fill="none"/><path d="M794.1,11l-3.332,0c-1.1,0-.99-.441-.993-1.315l-.005-2.222c-.007-.775.346-.95.825-1.487a3.585,3.585,0,1,0-5.349,0c.479.538.832.713.825,1.487l-.005,2.222c0,.874.112,1.318-.992,1.315l-3.332,0a1.82,1.82,0,0,0-1.821,1.82v2.36a1.82,1.82,0,0,0,1.82,1.82H794.1a1.82,1.82,0,0,0,1.82-1.82V12.82A1.82,1.82,0,0,0,794.1,11" transform="translate(-775.923 2)" fill="#1c8fed"/><rect width="16" height="2" rx="1" transform="translate(4 20)" fill="#ffc917"/></svg>