<svg xmlns="http://www.w3.org/2000/svg" width="24" height="24" viewBox="0 0 24 24"><rect width="24" height="24" fill="none"/><g transform="translate(2 3.875)"><path d="M52.321,33.229l3.1,4.358a1.345,1.345,0,0,0,2.334,0l3.1-4.358c.642-.9.263-1.64-.841-1.64H58.9V24.326a2.306,2.306,0,1,0-4.612,0v7.263H53.163c-1.1,0-1.483.738-.841,1.64" transform="translate(-41.17 -22.013)" fill="#1c8fed"/><path d="M17.683,27.047l-3.1-4.358a1.344,1.344,0,0,0-2.333,0l-3.1,4.358c-.642.9-.263,1.64.841,1.64h1.121V35.95a2.306,2.306,0,1,0,4.612,0V28.686h1.121c1.1,0,1.483-.738.841-1.64" transform="translate(-8.834 -22.012)" fill="#ffc917"/></g></svg>