<svg xmlns="http://www.w3.org/2000/svg" width="139" height="24" fill="none" viewBox="0 0 139 24">
  <path fill="#135EBA" d="m12.524 13.816-.036-.027a2.045 2.045 0 0 0-2.537.118l-.038.031a3.342 3.342 0 0 1-2.227.685 3.611 3.611 0 0 1-1.896-.487 3.3 3.3 0 0 1-1.27-1.341 4.287 4.287 0 0 1-.467-2.03 3.984 3.984 0 0 1 .985-2.854 3.26 3.26 0 0 1 2.527-1.028c.469-.01.934.074 1.37.247a3.17 3.17 0 0 1 1.07.779 2.063 2.063 0 0 0 1.574.719 1.75 1.75 0 0 0 1.028-.317 1.87 1.87 0 0 0 .902-1.588 1.732 1.732 0 0 0-.447-1.176 6.997 6.997 0 0 0-5.497-2.522 7.735 7.735 0 0 0-3.89.992A7.019 7.019 0 0 0 .962 6.802 8.209 8.209 0 0 0 0 10.766a7.93 7.93 0 0 0 .988 3.922 7.224 7.224 0 0 0 2.76 2.789 7.838 7.838 0 0 0 3.941 1.005 7.162 7.162 0 0 0 5.061-1.908 1.741 1.741 0 0 0 .535-1.244 1.945 1.945 0 0 0-.76-1.514m12.772-9.8a7.836 7.836 0 0 0-3.927-.991 7.958 7.958 0 0 0-3.962.99 7.066 7.066 0 0 0-2.753 2.767 8.09 8.09 0 0 0-.974 3.983 8.042 8.042 0 0 0 .974 3.958 7.072 7.072 0 0 0 2.753 2.774 8.406 8.406 0 0 0 7.913 0 7.1 7.1 0 0 0 2.738-2.768 8.04 8.04 0 0 0 .975-3.958 8.017 8.017 0 0 0-.99-3.987 7.193 7.193 0 0 0-2.747-2.768Zm-.787 8.78a3.312 3.312 0 0 1-1.27 1.34 3.84 3.84 0 0 1-3.742 0 3.398 3.398 0 0 1-1.286-1.348 4.14 4.14 0 0 1-.475-2.023 4.22 4.22 0 0 1 .477-2.04 3.381 3.381 0 0 1 1.28-1.356 3.842 3.842 0 0 1 3.742 0 3.3 3.3 0 0 1 1.269 1.35 4.37 4.37 0 0 1 .47 2.047 4.298 4.298 0 0 1-.469 2.03M45.148 3a6.652 6.652 0 0 0-2.833.6c-.54.249-1.04.576-1.486.97a5.174 5.174 0 0 0-1.339-.971 5.813 5.813 0 0 0-2.646-.6 5.992 5.992 0 0 0-2.248.421 5.723 5.723 0 0 0-.904.462 2.104 2.104 0 0 0-.157-.17 2.166 2.166 0 0 0-2.926.014A2.033 2.033 0 0 0 30 5.229v11.1a2.1 2.1 0 0 0 3.58 1.469 2.07 2.07 0 0 0 .575-1.47V9.293a2.44 2.44 0 0 1 .62-1.744 2.024 2.024 0 0 1 1.567-.643 1.914 1.914 0 0 1 1.453.54 2.45 2.45 0 0 1 .534 1.75v7.135a2.1 2.1 0 0 0 3.58 1.47 2.07 2.07 0 0 0 .576-1.47V9.293a2.44 2.44 0 0 1 .62-1.75 1.992 1.992 0 0 1 1.542-.64 1.913 1.913 0 0 1 1.454.54 2.45 2.45 0 0 1 .533 1.75v7.134a2.1 2.1 0 0 0 3.58 1.47 2.07 2.07 0 0 0 .576-1.47V9.193a6.365 6.365 0 0 0-1.552-4.516A5.378 5.378 0 0 0 45.148 3Zm18.16 1.032a7.797 7.797 0 0 0-3.905-1.007 7.895 7.895 0 0 0-2.72.47v-.006l-.066.03c-.366.137-.72.302-1.06.494a1.947 1.947 0 0 0-.25-.31 2.194 2.194 0 0 0-2.96-.009 1.998 1.998 0 0 0-.613 1.487V21.94a2.002 2.002 0 0 0 .608 1.487 2.196 2.196 0 0 0 2.962-.01 2.025 2.025 0 0 0 .585-1.475v-4.85a7.058 7.058 0 0 0 10.27-2.541 8.126 8.126 0 0 0 .928-3.865 7.711 7.711 0 0 0-.997-3.887 7.346 7.346 0 0 0-2.782-2.766Zm-.758 8.623a3.563 3.563 0 0 1-1.307 1.357 3.564 3.564 0 0 1-4.972-1.35 4.019 4.019 0 0 1-.476-1.978 4.087 4.087 0 0 1 .477-1.993 3.615 3.615 0 0 1 4.97-1.361 3.55 3.55 0 0 1 1.306 1.366 4 4 0 0 1 .487 1.988 3.937 3.937 0 0 1-.485 1.97M79.71 3.1a2.07 2.07 0 0 0-1.47.575 2.033 2.033 0 0 0-.606 1.502v7.034a2.04 2.04 0 0 1-.35 1.172c-.26.38-.618.682-1.035.875a3.421 3.421 0 0 1-1.55.342 3.204 3.204 0 0 1-2.326-.812 3.25 3.25 0 0 1-.834-2.473V5.173a2.078 2.078 0 1 0-4.156 0v6.142a8.019 8.019 0 0 0 .87 3.837 6.096 6.096 0 0 0 2.467 2.508 7.19 7.19 0 0 0 3.479.846c.904.004 1.8-.163 2.641-.494a6.601 6.601 0 0 0 1.115-.569c.08.123.171.237.275.34a2.147 2.147 0 0 0 2.983-.01c.378-.395.585-.923.575-1.47V5.173a2.06 2.06 0 0 0-.585-1.487A2.059 2.059 0 0 0 79.71 3.1Zm13.212 11.323h-4.718l6.06-8.04c.267-.373.402-.824.386-1.282a1.836 1.836 0 0 0-1.978-1.977H84.17a1.836 1.836 0 0 0-1.979 1.979 1.838 1.838 0 0 0 1.979 1.979h4.74l-6.085 8.04a2.086 2.086 0 0 0-.386 1.282 1.837 1.837 0 0 0 1.978 1.978h8.504a1.835 1.835 0 0 0 1.977-1.979 1.838 1.838 0 0 0-1.977-1.977"/>
  <path fill="#135EBA" d="M105.35 4.016a7.837 7.837 0 0 0-3.927-.991 7.957 7.957 0 0 0-3.962.99 7.066 7.066 0 0 0-2.753 2.767 8.105 8.105 0 0 0-.974 3.983 8.05 8.05 0 0 0 .974 3.958 7.08 7.08 0 0 0 2.753 2.769 8.405 8.405 0 0 0 7.913 0 7.101 7.101 0 0 0 2.738-2.768 8.05 8.05 0 0 0 .975-3.958 8.024 8.024 0 0 0-.988-3.987 7.184 7.184 0 0 0-2.749-2.763Zm-.787 8.78a3.314 3.314 0 0 1-1.269 1.342 3.838 3.838 0 0 1-3.742 0 3.394 3.394 0 0 1-1.286-1.35 4.133 4.133 0 0 1-.477-2.022 4.23 4.23 0 0 1 .478-2.04 3.386 3.386 0 0 1 1.283-1.357 3.84 3.84 0 0 1 3.743 0c.543.32.983.789 1.268 1.35.32.635.481 1.337.469 2.047a4.298 4.298 0 0 1-.468 2.03m16.042-8.948a7.457 7.457 0 0 0-6.122-.35c-.384.152-.753.34-1.102.562a1.888 1.888 0 0 0-.276-.345 2.175 2.175 0 0 0-2.959-.016 2.024 2.024 0 0 0-.613 1.503V16.33a2.101 2.101 0 0 0 3.58 1.47c.379-.394.586-.923.576-1.47V9.298a2.036 2.036 0 0 1 .35-1.171 2.58 2.58 0 0 1 1.035-.875 3.443 3.443 0 0 1 1.552-.341 3.2 3.2 0 0 1 2.324.812 3.259 3.259 0 0 1 .836 2.473v6.137a2.07 2.07 0 0 0 .593 1.498 2.09 2.09 0 0 0 1.485.623 2.078 2.078 0 0 0 2.077-2.12V10.19a8.025 8.025 0 0 0-.87-3.838 6.097 6.097 0 0 0-2.466-2.505Zm17.728 8.061a1.854 1.854 0 0 0 .572-1.369 8.62 8.62 0 0 0-.83-3.849 6.409 6.409 0 0 0-2.449-2.703 7.078 7.078 0 0 0-3.734-.962 7.664 7.664 0 0 0-3.879.992 7.034 7.034 0 0 0-2.7 2.783 8.208 8.208 0 0 0-.962 3.964 7.801 7.801 0 0 0 1.019 3.971 7.247 7.247 0 0 0 2.842 2.76 8.413 8.413 0 0 0 6.717.518 7.695 7.695 0 0 0 2.334-1.216 1.704 1.704 0 0 0 .721-1.392 1.985 1.985 0 0 0-2.002-1.904 2.073 2.073 0 0 0-1.312.437c-.337.242-.71.428-1.106.552a4.264 4.264 0 0 1-3.993-.659 3.496 3.496 0 0 1-1.044-1.389h8.426a1.945 1.945 0 0 0 1.38-.536m-9.765-3.07c.199-.484.507-.914.9-1.258a3.51 3.51 0 0 1 2.425-.797 2.864 2.864 0 0 1 2.104.768c.365.36.64.8.801 1.286h-6.23Z"/>
</svg>
